<svg width="243" height="254" viewBox="0 0 243 254" fill="none" xmlns="http://www.w3.org/2000/svg">
<path d="M120.189 253.347L103.105 205.063L66.5387 240.987L71.7504 189.683L23.7134 206.024L50.189 161.862L0.195801 155.385L42.6912 127.111L0.643433 99.0972L50.7424 92.3119L24.9683 48.3105L72.7476 64.3577L68.352 13.0835L104.349 48.7844L121.128 0.34668L139.286 48.6772L175.853 12.7535L170.641 64.0568L218.678 47.7155L192.203 91.8775L242.196 98.3552L199.7 126.629L241.748 154.643L191.649 161.428L217.423 205.429L169.644 189.382L174.04 240.656L138.043 204.955L120.189 253.347ZM62.1743 76.2956L86.2394 116.318L47.0428 141.927L92.5995 147.771L87.6536 194.37L121.156 161.902L153.526 194.265L149.519 147.771L195.112 141.466L156.359 116.318L180.898 75.9131L137.439 91.2503L121.109 46.8743L106.108 91.2503L62.1743 76.2956Z" fill="white"/>
</svg>
